# xmcd
#
# Track frame offsets: 
#        150
#        10950
#        29700
#        50626
#        62776
#        81977
#        92516
#        117717
#        129906
#        144831
#        184619
#        201995
#        223362
#        237247
#        258333
#        277276
#        303808
#        341099
#
# Disc length: 4799 seconds
#
# Revision: 0
# Processed by: cddbd v1.5PL3 Copyright (c) Steve Scherf et al.
# Submitted via: ExactAudioCopy v0.95a4
#
DISCID=1712bd12
DTITLE=Stevie Ray Vaughan - In Step and Peace In The Valley
DYEAR=1900
DGENRE=Blues
TTITLE0=The house is rockin'
TTITLE1=Crossfire
TTITLE2=Tightrope
TTITLE3=Let me love you baby
TTITLE4=Leave my girl alone
TTITLE5=Travis walk
TTITLE6=Wall of denail
TTITLE7=Scratch-n-sniff
TTITLE8=Love me darlin
TTITLE9=Riviera paradise
TTITLE10=Tightrope
TTITLE11=The things I used to do
TTITLE12=Let me love you baby
TTITLE13=Leave my little girl alone
TTITLE14=(Look at) Little sister
TTITLE15=Wall of denail
TTITLE16=Riviera paradise
TTITLE17=Superstition
EXTD=
EXTT0=
EXTT1=
EXTT2=
EXTT3=
EXTT4=
EXTT5=
EXTT6=
EXTT7=
EXTT8=
EXTT9=
EXTT10=
EXTT11=
EXTT12=
EXTT13=
EXTT14=
EXTT15=
EXTT16=
EXTT17=
PLAYORDER=
